<?xml version="1.0" ?><svg xmlns="http://www.w3.org/2000/svg" xmlns:xlink="http://www.w3.org/1999/xlink" version="1.1" id="Layer_1" viewBox="0 0 1500 1500" style="enable-background:new 0 0 1500 1500;" xml:space="preserve"><style type="text/css">
	.st0{fill:#EF4743;}
	.st1{fill:none;stroke:#C1C2C6;stroke-width:11;stroke-linecap:round;stroke-linejoin:round;stroke-miterlimit:10;}
	.st2{fill:#C1C2C6;}
	.st3{fill:#FFB53D;}
	.st4{fill:#221F44;}
	.st5{fill:#417FF0;}
	.st6{fill:none;stroke:#417FF0;stroke-width:15.8272;stroke-miterlimit:10;}
	.st7{fill:none;stroke:#69A6FF;stroke-width:15.5057;stroke-miterlimit:10;}
	.st8{fill:none;stroke:#69A6FF;stroke-width:16.165;stroke-miterlimit:10;}
	.st9{fill:none;stroke:#FFFFFF;stroke-width:7;stroke-miterlimit:10;}
	.st10{fill:#FFFFFF;}
	.st11{fill:none;stroke:#FFB53D;stroke-width:32.6337;stroke-miterlimit:10;}
	.st12{fill:none;stroke:#C1C2C6;stroke-width:6.0662;stroke-miterlimit:10;}
	.st13{fill:none;stroke:#221F44;stroke-width:7.2794;stroke-miterlimit:10;}
</style><rect x="1031.6" y="461.95" class="st0" width="193.74" height="657.7"/><line class="st1" x1="1291.61" y1="352" x2="1291.61" y2="423.62"/><line class="st1" x1="1327.42" y1="387.81" x2="1255.8" y2="387.81"/><circle class="st2" cx="1329.9" cy="502.88" r="19"/><line class="st1" x1="236.31" y1="964" x2="236.31" y2="1034.92"/><line class="st1" x1="200.85" y1="999.46" x2="271.77" y2="999.46"/><circle class="st2" cx="198.75" cy="1114.66" r="18.81"/><g><path class="st3" d="M600.95,394.12h476.98c7.79-66.19,99.29-70.09,115.01,0v613.32H600.51L600.95,394.12z"/><path class="st0" d="M1092.89,360.97c-12.83,12.83-15.39,33.15-15.39,33.15H502.86C516.97,343.01,530.4,343,551.9,343   c21.5,0,583.32,0,583.32,0S1110.85,343.01,1092.89,360.97z"/></g><rect x="398.45" y="569.39" class="st4" width="750.09" height="605.49"/><rect x="343.18" y="568.83" class="st5" width="750.09" height="605.49"/><polyline class="st6" points="561.51,688.72 561.51,465.3 876.87,465.3 876.87,688.72 "/><line class="st7" x1="560.55" y1="812.24" x2="875.9" y2="812.24"/><line class="st8" x1="551.79" y1="951.18" x2="880.56" y2="951.18"/><g><g><path class="st5" d="M1315.01,1175.48h-41.61c-4.55,0-8.23-3.68-8.23-8.23V776.84h58.07v390.41    C1323.24,1171.79,1319.55,1175.48,1315.01,1175.48z"/><path class="st5" d="M1289.96,709.67l-25.07,67.17h58.34l-25.07-67.17C1296.75,705.87,1291.38,705.87,1289.96,709.67z"/></g><line class="st9" x1="1265.17" y1="1117.97" x2="1323.24" y2="1117.97"/></g><g><circle class="st4" cx="344.12" cy="383.04" r="33.34"/><g><rect x="201.99" y="446.67" class="st10" width="285.47" height="388.09"/><polygon class="st11" points="503,848.64 186.45,848.64 186.45,432.79 345.33,432.79 503,432.79   "/><rect x="268.9" y="415.8" class="st4" width="150.44" height="59.45"/><rect x="268.9" y="523.78" class="st12" width="150.44" height="209.89"/><line class="st12" x1="268.9" y1="594.75" x2="419.34" y2="594.75"/><line class="st12" x1="268.9" y1="663.91" x2="419.34" y2="663.91"/><line class="st12" x1="344.12" y1="523.78" x2="344.12" y2="733.24"/><polyline class="st13" points="359.29,555.93 376.88,575.68 405.39,540.09   "/><polyline class="st13" points="359.29,627.51 376.88,647.26 405.39,611.67   "/><polyline class="st13" points="359.29,691.81 376.88,711.56 405.39,675.97   "/></g></g></svg>